<?xml version="1.0" encoding="UTF-8"?>
<svg width="1024" height="1024" viewBox="0 0 1024 1024" xmlns="http://www.w3.org/2000/svg">
  <rect width="1024" height="1024" fill="#0A1E3A"/>
  <!-- Central hub -->
  <circle cx="512" cy="512" r="48" fill="#17C9CF"/>
  <!-- Orbiting nodes -->
  <circle cx="512" cy="260" r="28" fill="#17C9CF"/>
  <circle cx="752" cy="384" r="28" fill="#17C9CF"/>
  <circle cx="752" cy="640" r="28" fill="#17C9CF"/>
  <circle cx="512" cy="764" r="28" fill="#17C9CF"/>
  <circle cx="272" cy="640" r="28" fill="#17C9CF"/>
  <circle cx="272" cy="384" r="28" fill="#17C9CF"/>
  <!-- Connecting lines (exact geometry, same stroke width as original) -->
  <g stroke="#17C9CF" stroke-width="10" fill="none">
    <line x1="512" y1="512" x2="512" y2="260"/>
    <line x1="512" y1="512" x2="752" y2="384"/>
    <line x1="512" y1="512" x2="752" y2="640"/>
    <line x1="512" y1="512" x2="512" y2="764"/>
    <line x1="512" y1="512" x2="272" y2="640"/>
    <line x1="512" y1="512" x2="272" y2="384"/>
    <!-- Outer hexagon edges -->
    <line x1="512" y1="260" x2="752" y2="384"/>
    <line x1="752" y1="384" x2="752" y2="640"/>
    <line x1="752" y1="640" x2="512" y2="764"/>
    <line x1="512" y1="764" x2="272" y2="640"/>
    <line x1="272" y1="640" x2="272" y2="384"/>
    <line x1="272" y1="384" x2="512" y2="260"/>
  </g>
</svg>